<?xml version="1.0" standalone="no"?><!DOCTYPE svg PUBLIC "-//W3C//DTD SVG 1.1//EN" "http://www.w3.org/Graphics/SVG/1.1/DTD/svg11.dtd"><svg t="1763630621492" class="icon" viewBox="0 0 1024 1024" version="1.1" xmlns="http://www.w3.org/2000/svg" p-id="2570" xmlns:xlink="http://www.w3.org/1999/xlink" width="200" height="200"><path d="M512.3072 302.87872c-113.82784 0-213.4016 100.9664-213.4016 216.33024 0 115.38432 99.57376 216.35072 213.4016 216.35072s213.4016-100.9664 213.4016-216.35072-99.57376-216.33024-213.4016-216.33024z m0 288.44032c-35.57376 0-71.14752-36.0448-71.14752-72.0896 0-36.08576 35.57376-72.13056 71.14752-72.13056s71.14752 36.0448 71.14752 72.11008c0 36.0448-35.57376 72.11008-71.14752 72.11008zM825.344 576.9216a395.14112 395.14112 0 0 1-85.36064 173.056c-49.80736 50.4832-106.7008 79.33952-170.74176 93.75744V1024c106.7008-14.41792 213.4016-57.69216 298.78272-144.22016 85.36064-86.54848 128.04096-187.4944 142.27456-295.66976L825.344 576.9216z m0-129.80224a395.14112 395.14112 0 0 0-85.36064-173.056c-49.80736-43.27424-113.82784-72.13056-177.84832-86.54848V7.20896c106.7008 14.41792 213.4016 57.69216 298.78272 144.22016 85.36064 86.54848 128.04096 187.4944 142.27456 295.66976h-177.84832zM185.07776 576.90112a395.12064 395.12064 0 0 0 85.36064 173.056c49.78688 50.4832 106.7008 79.33952 170.72128 93.75744V1024c-106.7008-14.41792-213.4016-57.69216-298.78272-144.22016C57.01632 793.23136 14.336 692.28544 0.1024 584.0896l184.97536-7.20896z m0-129.80224a395.12064 395.12064 0 0 1 85.36064-173.056c49.78688-50.50368 106.7008-79.33952 170.72128-93.75744V0C334.45888 21.62688 227.75808 64.90112 149.504 151.42912 64.1024 237.9776 21.44256 338.944 7.22944 447.09888h177.84832z" p-id="2571"></path></svg>