<?xml version="1.0" standalone="no"?><!DOCTYPE svg PUBLIC "-//W3C//DTD SVG 1.1//EN" "http://www.w3.org/Graphics/SVG/1.1/DTD/svg11.dtd"><svg t="1761643485721" class="icon" viewBox="0 0 1024 1024" version="1.1" xmlns="http://www.w3.org/2000/svg" p-id="1843" xmlns:xlink="http://www.w3.org/1999/xlink" width="200" height="200"><path d="M139.89888 35.84c21.95456 0 40.5504 7.45472 55.84896 22.3232 15.27808 14.86848 22.9376 33.23904 22.9376 55.15264v59.86304c0 21.9136-7.65952 40.48896-22.9376 55.74656-15.27808 15.2576-33.8944 22.89664-55.84896 22.89664H77.6192c-21.17632 0-39.38304-7.63904-54.6816-22.89664C7.63904 213.66784 0 195.09248 0 173.17888V113.31584c0-21.9136 7.63904-40.28416 22.9376-55.15264 15.27808-14.86848 33.4848-22.3232 54.66112-22.3232H139.8784z m806.5024 0c21.17632 0 39.38304 7.45472 54.6816 22.3232C1016.36096 73.03168 1024 91.40224 1024 113.31584v59.86304c0 21.9136-7.63904 40.48896-22.9376 55.74656-15.27808 15.2576-33.50528 22.89664-54.66112 22.89664H444.416c-21.93408 0-40.5504-7.63904-55.84896-22.89664-15.27808-15.2576-22.91712-33.83296-22.91712-55.74656V113.31584c0-21.9136 7.63904-40.28416 22.9376-55.15264 15.27808-14.86848 33.8944-22.3232 55.82848-22.3232h502.00576zM139.89888 400.91648c21.95456 0 40.5504 7.61856 55.84896 22.87616 15.27808 15.2576 22.9376 33.83296 22.9376 55.74656v59.86304c0 21.13536-7.65952 39.3216-22.9376 54.5792-15.27808 15.2576-33.8944 22.89664-55.84896 22.89664H77.6192c-21.17632 0-39.38304-7.63904-54.6816-22.89664C7.63904 578.70336 0 560.5376 0 539.38176v-59.86304c0-21.9136 7.63904-40.48896 22.9376-55.74656 15.27808-15.2576 33.4848-22.87616 54.66112-22.87616H139.8784z m806.5024 0c21.17632 0 39.38304 7.61856 54.6816 22.87616 15.27808 15.2576 22.91712 33.83296 22.91712 55.74656v59.86304c0 21.13536-7.63904 39.3216-22.9376 54.5792-15.27808 15.2576-33.50528 22.89664-54.66112 22.89664H444.416c-21.93408 0-40.5504-7.63904-55.84896-22.89664-15.27808-15.2576-22.91712-33.44384-22.91712-54.5792v-59.86304c0-21.9136 7.63904-40.48896 22.9376-55.74656 15.27808-15.2576 33.8944-22.87616 55.82848-22.87616h502.00576z m-806.5024 366.1824c21.95456 0 40.5504 7.63904 55.84896 22.89664 15.27808 15.2576 22.9376 33.44384 22.9376 54.5792v59.86304c0 21.9136-7.65952 40.48896-22.9376 55.74656-15.27808 15.2576-33.8944 22.89664-55.84896 22.89664H77.6192c-21.17632 0-39.38304-7.63904-54.6816-22.89664C7.63904 944.90624 0 926.33088 0 904.41728v-59.86304c0-21.13536 7.63904-39.3216 22.9376-54.5792 15.27808-15.2576 33.4848-22.87616 54.66112-22.87616H139.8784z m806.5024 0c21.17632 0 39.38304 7.63904 54.6816 22.89664 15.27808 15.2576 22.91712 33.44384 22.91712 54.5792v59.86304c0 21.9136-7.63904 40.48896-22.9376 55.74656-15.27808 15.2576-33.50528 22.89664-54.66112 22.89664H444.416c-21.93408 0-40.5504-7.63904-55.84896-22.89664-15.27808-15.2576-22.91712-33.83296-22.91712-55.74656v-59.86304c0-21.13536 7.63904-39.3216 22.9376-54.5792 15.27808-15.2576 33.8944-22.87616 55.82848-22.87616h502.00576z" p-id="1844"></path></svg>