<?xml version="1.0" standalone="no"?><!DOCTYPE svg PUBLIC "-//W3C//DTD SVG 1.1//EN" "http://www.w3.org/Graphics/SVG/1.1/DTD/svg11.dtd"><svg t="1763605466786" class="icon" viewBox="0 0 1024 1024" version="1.1" xmlns="http://www.w3.org/2000/svg" p-id="14340" xmlns:xlink="http://www.w3.org/1999/xlink" width="200" height="200"><path d="M352.628982 511.887385v93.081602h-22.7278c-119.372138 0-216.139329 79.158265-216.13933 176.826378v148.918278h796.251065v-148.918278c0-97.668113-96.767191-176.846854-216.118854-176.846854h-22.748275V511.887385h22.7278C876.105497 511.887385 1023.77477 632.733759 1023.77477 781.795365v186.122253c0 7.350703-1.760893 14.619504-5.200776 21.376417-3.419408 6.777389-8.45638 12.940513-14.783308 18.120814-6.347404 5.1803-13.86191 9.295875-22.154486 12.101018a81.574374 81.574374 0 0 1-26.106257 4.258903H68.244826c-8.947791 0-17.813681-1.433285-26.106256-4.258903a70.886165 70.886165 0 0 1-22.154486-12.080543 56.573794 56.573794 0 0 1-14.783308-18.141289A47.175541 47.175541 0 0 1 0 967.938094v-186.142729C0 632.733759 147.689748 511.887385 329.880706 511.887385h22.748276zM511.887385 0c138.209594 0 250.251505 91.668793 250.251504 204.754954v74.448901c0 113.086161-112.041911 204.754954-250.251504 204.754954-138.209594 0-250.251505-91.668793-250.251505-204.754954V204.754954C261.63588 91.668793 373.677791 0 511.887385 0z m0 93.061127c-75.390774 0-136.510128 50.021635-136.510128 111.693827v74.448901c0 61.692668 61.119354 111.693827 136.510128 111.693828s136.510128-50.00116 136.510128-111.693828V204.754954c0-61.672192-61.119354-111.693827-136.510128-111.693827z" p-id="14341"></path></svg>