<?xml version="1.0" standalone="no"?><!DOCTYPE svg PUBLIC "-//W3C//DTD SVG 1.1//EN" "http://www.w3.org/Graphics/SVG/1.1/DTD/svg11.dtd"><svg t="1762396764818" class="icon" viewBox="0 0 1024 1024" version="1.1" xmlns="http://www.w3.org/2000/svg" p-id="2446" xmlns:xlink="http://www.w3.org/1999/xlink" width="200" height="200"><path d="M248.95488 0a192.1024 192.1024 0 0 0-136.21248 56.60672A193.3312 193.3312 0 0 0 56.32 193.29024v386.53952a193.8432 193.8432 0 0 0 56.4224 136.68352 192.59392 192.59392 0 0 0 136.21248 56.60672h357.76512a109.7728 109.7728 0 0 0 77.824-32.3584A110.51008 110.51008 0 0 0 716.8 662.67136V193.26976a193.8432 193.8432 0 0 0-56.4224-136.66304A192.6144 192.6144 0 0 0 524.16512 0H248.95488z" p-id="2447"></path><path d="M802.34496 692.224c0 43.99104-17.408 86.17984-48.41472 117.28896a165.00736 165.00736 0 0 1-116.89984 48.59904h-181.82144c-17.55136 0-34.36544 6.9632-46.75584 19.43552a66.47808 66.47808 0 0 0-19.37408 46.8992v33.1776c0 17.6128 6.9632 34.48832 19.37408 46.91968a66.00704 66.00704 0 0 0 46.75584 19.456H664.576a302.4896 302.4896 0 0 0 214.28224-89.088 304.66048 304.66048 0 0 0 88.76032-215.04V399.1552c0-17.6128-6.9632-34.48832-19.3536-46.91968a66.00704 66.00704 0 0 0-46.75584-19.456h-33.0752c-17.53088 0-34.34496 7.00416-46.75584 19.456a66.47808 66.47808 0 0 0-19.3536 46.8992V692.224z" p-id="2448"></path></svg>