<?xml version="1.0" standalone="no"?><!DOCTYPE svg PUBLIC "-//W3C//DTD SVG 1.1//EN" "http://www.w3.org/Graphics/SVG/1.1/DTD/svg11.dtd"><svg t="1763687461912" class="icon" viewBox="0 0 1024 1024" version="1.1" xmlns="http://www.w3.org/2000/svg" p-id="2600" xmlns:xlink="http://www.w3.org/1999/xlink" width="200" height="200"><path d="M695.091127 489.103164c-95.703002 78.028769-183.050167 162.529215-183.050167 162.529215L353.587263 460.799816l-76.881889 76.799969s67.952613 78.110689 128.143309 153.599939c60.415976 75.77597 107.192277 146.636741 107.192277 146.636741s124.02683-141.660103 247.603101-256.491418c69.488612-64.511974 154.582978-139.120584 218.275753-194.273202v524.43115A112.598995 112.598995 0 0 1 865.279859 1023.99959H158.679181a112.598995 112.598995 0 0 1-112.598995-112.496595V281.313167c0-14.131194 5.488638-27.729909 15.359994-37.826544L283.320411 16.302073A54.620138 54.620138 0 0 1 322.109516 0H865.279859a112.598995 112.598995 0 0 1 112.619475 112.496595v171.663291c-66.559973 45.137902-197.980081 135.679946-282.828687 204.943278z" p-id="2601"></path></svg>