<?xml version="1.0" standalone="no"?><!DOCTYPE svg PUBLIC "-//W3C//DTD SVG 1.1//EN" "http://www.w3.org/Graphics/SVG/1.1/DTD/svg11.dtd"><svg t="1764397053617" class="icon" viewBox="0 0 1024 1024" version="1.1" xmlns="http://www.w3.org/2000/svg" p-id="2690" xmlns:xlink="http://www.w3.org/1999/xlink" width="200" height="200"><path d="M1005.3632 373.59616a43.88864 43.88864 0 0 0-60.90752 10.6496l-35.20512 50.25792C868.92544 222.43328 682.45504 61.44 458.83392 61.44 205.78304 61.44 0 267.34592 0 520.27392 0 773.2224 205.78304 979.1488 458.83392 979.1488a459.1616 459.1616 0 0 0 291.24608-104.3456 43.70432 43.70432 0 0 0 5.98016-61.5424 43.70432 43.70432 0 0 0-61.56288-5.98016 371.99872 371.99872 0 0 1-235.76576 84.3776c-204.71808 0.1024-371.36384-166.52288-371.36384-371.36384 0-204.82048 166.64576-371.46624 371.46624-371.46624 184.46336 0 337.44896 135.168 366.14144 311.62368l-63.03744-44.27776a43.88864 43.88864 0 0 0-60.928 10.67008 43.88864 43.88864 0 0 0 10.67008 60.928l143.0528 100.49536a43.88864 43.88864 0 0 0 60.928-10.67008l100.49536-143.07328a43.88864 43.88864 0 0 0-10.77248-60.90752z" p-id="2691"></path></svg>