<?xml version="1.0" standalone="no"?><!DOCTYPE svg PUBLIC "-//W3C//DTD SVG 1.1//EN" "http://www.w3.org/Graphics/SVG/1.1/DTD/svg11.dtd"><svg t="1761725362673" class="icon" viewBox="0 0 1024 1024" version="1.1" xmlns="http://www.w3.org/2000/svg" p-id="1644" xmlns:xlink="http://www.w3.org/1999/xlink" width="200" height="200"><path d="M1000.653 463.442L668.795 131.01c-20.644-20.603-45.322-26.747-70.84-17.204-26.153 9.851-41.104 33.28-41.165 64.39v150.118h-64.963l-186.45 0.082c-39.117 0.123-66.416 27.32-66.56 66.232-0.123 78.418-0.123 156.754 0 235.09 0.144 37.683 27.75 65.27 65.741 65.659l252.232 0.061-0.082 29.061c-0.123 40.756-0.246 81.408 0.594 122.102 0.246 15.934 6.512 33.28 16.22 45.18 11.899 14.663 28.2 22.732 45.916 22.732 17.51 0 35.164-7.987 49.685-22.467 110.735-110.715 221.347-221.511 331.94-332.35 29.552-29.49 29.43-66.436-0.37-96.255z" p-id="1645"></path><path d="M387.338 805.683h-0.061l-72.5 0.144-103.772-0.062c-52.428 0-82.534-30.146-82.534-82.698V300.483c0-52.43 30.106-82.494 82.678-82.494l68.71-0.061 75.51 0.061 42.025-0.061c30.044 0 46.49-15.115 48.845-44.81 0.88-11.06 0.614-22.324 0.245-34.878-0.757-31.293-18.288-48.579-49.152-48.64h-76.288c-40.857 0-81.715 0-122.51 0.266a187.556 187.556 0 0 0-38.217 4.22C68.177 113.745 0.922 196.423 0.41 290.692 0.143 341.504 0.205 392.397 0.287 443.146l0.061 67.646-0.143 70.983C0.143 632.771 0.02 683.725 0.47 734.781c0.901 107.787 88.678 197.059 195.707 199.066 26.337 0.492 52.736 0.614 79.094 0.614l125.235-0.245c24.76 0 42.086-15.033 45.138-39.24 1.106-8.827 1.229-17.859 1.29-26.87v-4.485c0.123-13.312 0.246-31.54-12.534-44.482-12.329-12.35-30.105-13.435-47.063-13.435z" p-id="1646"></path></svg>