<?xml version="1.0" standalone="no"?><!DOCTYPE svg PUBLIC "-//W3C//DTD SVG 1.1//EN" "http://www.w3.org/Graphics/SVG/1.1/DTD/svg11.dtd"><svg t="1764311680291" class="icon" viewBox="0 0 1024 1024" version="1.1" xmlns="http://www.w3.org/2000/svg" p-id="9523" xmlns:xlink="http://www.w3.org/1999/xlink" width="200" height="200"><path d="M512 0c282.76736 0 512 229.23264 512 512S794.76736 1024 512 1024 0 794.76736 0 512 229.23264 0 512 0z m31.45728 397.43488c-5.50912 0-11.264 0.47104-17.3056 1.29024a78.0288 78.0288 0 0 0-35.96288 15.1552c-6.12352 4.7104-11.40736 10.4448-15.60576 16.91648-5.16096 7.45472-9.03168 15.72864-11.4688 24.4736-2.33472 8.33536-4.13696 16.7936-5.38624 25.37472a184.58624 184.58624 0 0 0-1.3312 28.16c-2.048 2.29376-3.62496 4.95616-4.77184 7.82336a24.576 24.576 0 0 0-2.12992 8.88832c-0.28672 3.584 0.24576 7.43424 1.67936 11.4688 1.4336 4.096 2.99008 7.18848 4.56704 9.5232 1.26976 1.9456 2.80576 3.6864 4.56704 5.2224 1.6384 1.06496 3.3792 1.9456 5.20192 2.60096 1.14688 4.36224 2.31424 8.25344 3.50208 11.73504 1.1264 3.1744 2.51904 6.3488 4.096 9.5232 1.29024 2.80576 3.13344 5.3248 5.40672 7.39328 4.096 3.1744 7.86432 6.43072 11.264 9.728 3.62496 3.64544 5.79584 8.51968 6.06208 13.66016 0.26624 4.096 0.47104 7.68 0.47104 10.8544 0 3.13344-0.65536 6.22592-1.9456 9.07264-1.536 3.23584-3.584 6.144-6.06208 8.704a74.9568 74.9568 0 0 1-34.65216 19.23072c-8.3968 2.1504-16.71168 4.66944-24.8832 7.59808-7.5776 2.62144-14.68416 6.41024-21.03296 11.264-5.9392 4.608-9.58464 11.53024-11.01824 20.76672-2.3552 15.872-2.72384 28.91776-1.3312 39.0144 1.4336 10.11712 3.33824 16.1792 5.71392 18.18624 1.41312 1.16736 4.93568 2.41664 10.56768 3.74784 5.69344 1.29024 12.57472 2.56 20.7872 3.8912 8.21248 1.29024 17.26464 2.43712 27.07456 3.46112 19.6608 2.048 39.36256 3.70688 59.10528 4.99712 9.33888 0.55296 17.67424 0.83968 24.8832 0.83968 7.18848 0 15.58528-0.28672 25.10848-0.83968 9.5232-0.57344 19.39456-1.31072 29.696-2.19136 19.53792-1.6384 38.99392-4.096 58.32704-7.33184 8.35584-1.4336 15.31904-3.072 20.97152-4.8128 5.632-1.72032 9.0112-3.4816 10.17856-5.2224 1.67936-2.56 2.99008-6.47168 3.82976-11.6736 0.88064-5.2224 1.35168-10.752 1.35168-16.67072 0-5.98016-0.32768-11.776-1.08544-17.55136a109.99808 109.99808 0 0 0-2.92864-14.82752 33.36192 33.36192 0 0 0-11.42784-15.5648 73.48224 73.48224 0 0 0-18.2272-9.99424 187.33056 187.33056 0 0 0-21.25824-6.7584 134.36928 134.36928 0 0 1-20.15232-6.71744 52.0192 52.0192 0 0 1-16.22016-9.09312 33.71008 33.71008 0 0 1-8.45824-10.83392 29.696 29.696 0 0 1-2.78528-11.53024 58.79808 58.79808 0 0 1 0.63488-11.42784c0.43008-2.56 1.24928-5.05856 2.37568-7.3728 1.00352-1.96608 2.2528-3.7888 3.72736-5.40672a34.6112 34.6112 0 0 1 4.95616-4.58752 157.2864 157.2864 0 0 0 6.30784-5.18144c2.33472-1.88416 4.25984-4.23936 5.632-6.92224 1.69984-3.19488 3.19488-6.3488 4.34176-9.54368 1.1264-3.46112 2.27328-7.35232 3.4816-11.71456a14.0288 14.0288 0 0 0 6.92224-3.8912c1.72032-1.67936 3.4816-4.15744 5.18144-7.33184a35.0208 35.0208 0 0 0 3.4816-12.57472 25.6 25.6 0 0 0-0.2048-10.15808 39.03488 39.03488 0 0 0-2.41664-6.7584 16.42496 16.42496 0 0 0-3.87072-4.7104 170.25024 170.25024 0 0 0-1.72032-29.47072 199.00416 199.00416 0 0 0-6.71744-27.09504 77.23008 77.23008 0 0 0-14.1312-26.17344c-5.48864-6.92224-13.98784-13.43488-25.6-19.5584a83.47648 83.47648 0 0 0-39.36256-9.07264z m-138.46528-67.19488c-5.77536 0-11.71456 0.512-17.75616 1.35168a74.0352 74.0352 0 0 0-18.0224 4.95616 79.99488 79.99488 0 0 0-17.48992 10.17856c-6.12352 4.7104-11.38688 10.4448-15.58528 16.896-5.28384 7.3728-9.25696 15.5648-11.73504 24.2688a198.5536 198.5536 0 0 0-5.632 25.088 188.60032 188.60032 0 0 0-1.29024 28.16c-2.12992 2.23232-3.76832 4.9152-4.75136 7.84384a27.93472 27.93472 0 0 0-0.45056 20.7872c1.39264 4.03456 2.92864 7.168 4.54656 9.54368 1.26976 1.92512 2.80576 3.66592 4.56704 5.16096 1.69984 1.14688 3.4816 2.00704 5.2224 2.64192 1.1264 4.34176 2.2528 8.23296 3.44064 11.69408 1.14688 3.23584 2.56 6.3488 4.11648 9.54368 1.29024 2.82624 3.2768 5.18144 5.81632 6.92224 4.07552 3.4816 7.72096 6.84032 11.03872 10.15808 3.4816 3.72736 5.57056 8.58112 5.8368 13.68064 0.28672 3.72736 0.47104 7.168 0.47104 10.36288 0 3.19488-0.57344 6.26688-1.72032 9.29792-1.35168 3.31776-3.31776 6.3488-5.8368 8.9088a71.68 71.68 0 0 1-11.93984 9.54368c-7.08608 4.23936-14.7456 7.45472-22.7328 9.54368-8.4992 2.27328-16.83456 4.83328-24.8832 7.61856-7.59808 2.4576-14.70464 6.2464-20.992 11.20256-5.98016 4.75136-9.6256 11.6736-11.03872 20.5824-2.33472 16.15872-2.80576 29.36832-1.51552 39.44448 1.26976 10.11712 3.21536 16.15872 5.79584 18.20672 1.72032 1.4336 5.91872 2.94912 12.55424 4.34176 6.656 1.4336 14.78656 2.92864 24.49408 4.36224 9.68704 1.41312 20.2752 2.74432 31.8464 3.87072 11.5712 1.14688 22.95808 2.17088 34.22208 3.01056l0.83968-1.536a12.57472 12.57472 0 0 0 0.88064-1.536c0.26624-2.62144 0.512-5.40672 0.6144-8.43776 0.18432-3.13344 0.53248-6.2464 1.06496-9.3184 1.4336-10.40384 5.12-18.39104 11.01824-24.064a73.13408 73.13408 0 0 1 20.80768-13.63968c7.86432-3.42016 16.13824-6.5536 24.84224-9.48224a116.38784 116.38784 0 0 0 24.24832-11.24352c3.21536-1.96608 5.2224-3.8912 6.06208-5.632 1.04448-2.3552 1.78176-4.85376 2.17088-7.39328a77.14816 77.14816 0 0 1-1.10592-6.90176 8.31488 8.31488 0 0 0-1.26976-4.096 26.91072 26.91072 0 0 0-2.82624-3.2768c-1.1264-1.14688-2.72384-2.53952-4.73088-4.34176a18.75968 18.75968 0 0 1-5.8368-7.96672 112.37376 112.37376 0 0 1-4.096-10.6496c-1.1264-4.03456-2.27328-8.3968-3.50208-13.0048a13.23008 13.23008 0 0 1-5.18144-3.4816 40.81664 40.81664 0 0 1-4.73088-6.02112 42.68032 42.68032 0 0 1-4.77184-11.264 34.304 34.304 0 0 1 0.47104-22.97856c1.18784-3.19488 2.94912-6.144 5.20192-8.68352 0-10.07616 0.73728-20.19328 2.17088-30.3104 1.6384-9.216 3.80928-18.3296 6.53312-27.29984 2.88768-9.80992 7.168-18.75968 13.0048-26.89024 4.9152-6.656 10.3424-12.98432 16.19968-18.8416a87.04 87.04 0 0 1 17.53088-14.06976c-1.49504-4.8128-2.8672-9.66656-4.096-14.5408-1.4336-4.99712-3.87072-9.6256-7.168-13.63968-5.75488-6.92224-14.4384-13.39392-25.98912-19.51744a82.67776 82.67776 0 0 0-38.95296-9.1136zM753.99168 256h-136.17152a14.06976 14.06976 0 0 0-13.96736 14.15168v88.53504a14.06976 14.06976 0 0 0 13.98784 14.17216h20.97152v21.87264a6.92224 6.92224 0 1 0 11.89888 4.99712l26.46016-26.89024h76.82048a14.06976 14.06976 0 0 0 14.00832-14.1312v-88.4736a14.1312 14.1312 0 0 0-14.00832-14.2336z m-108.15488 44.7488c7.0656 0 12.8 5.91872 12.8 13.08672a12.96384 12.96384 0 0 1-12.8 13.08672 13.04576 13.04576 0 0 1-12.92288-13.1072 13.06624 13.06624 0 0 1 12.92288-13.06624z m44.40064 0.12288a13.02528 13.02528 0 1 1 0 26.05056 13.02528 13.02528 0 0 1 0-26.05056z m42.74176-0.12288c7.04512 0 12.8 5.91872 12.8 13.08672a13.0048 13.0048 0 0 1-12.8 13.08672 13.04576 13.04576 0 0 1-12.92288-13.1072 13.04576 13.04576 0 0 1 12.92288-13.06624z" p-id="9524"></path></svg>