<?xml version="1.0" standalone="no"?><!DOCTYPE svg PUBLIC "-//W3C//DTD SVG 1.1//EN" "http://www.w3.org/Graphics/SVG/1.1/DTD/svg11.dtd"><svg t="1761643490818" class="icon" viewBox="0 0 1024 1024" version="1.1" xmlns="http://www.w3.org/2000/svg" p-id="2159" xmlns:xlink="http://www.w3.org/1999/xlink" width="200" height="200"><path d="M519.9872 0c-111.86176 0-202.6496 82.86208-206.52032 186.92096H52.67456C23.71584 186.92096 0 208.896 0 236.1344c0 27.07456 23.53152 49.23392 52.67456 49.23392h58.14272v550.72768C110.7968 939.47904 185.79456 1024 278.528 1024h472.39168c92.5696 0 167.7312-84.00896 167.7312-187.904V285.696h52.67456c28.95872 0 52.67456-21.97504 52.67456-49.21344 0-27.09504-23.53152-49.23392-52.67456-49.23392h-245.1456C722.80064 82.88256 631.82848 0 519.9872 0z m-107.8272 186.92096c3.87072-53.3504 50.40128-94.69952 108.01152-94.69952 57.58976 0 104.1408 41.51296 107.45856 94.69952h-215.4496z m-133.81632 745.02144c-32.82944 0-69.0176-39.38304-69.0176-95.8464V285.696h610.44736v550.912c0 56.27904-36.18816 95.82592-69.0176 95.82592H278.3232v-0.49152z" p-id="2160"></path><path d="M349.06112 813.62944c24.064 0 43.90912-22.48704 43.90912-50.70848V473.6c0-28.22144-19.6608-50.70848-43.88864-50.70848-24.064 0-43.90912 22.48704-43.90912 50.70848v289.32096c0 28.0576 19.31264 50.70848 43.88864 50.70848z m158.9248 0c24.08448 0 43.90912-22.48704 43.90912-50.70848V473.6c0-28.22144-19.6608-50.70848-43.88864-50.70848-24.064 0-43.90912 22.48704-43.90912 50.70848v289.32096c0 28.0576 19.84512 50.70848 43.90912 50.70848z m167.19872 0c24.064 0 43.90912-22.48704 43.90912-50.70848V473.6c0-28.22144-19.6608-50.70848-43.90912-50.70848-24.064 0-43.90912 22.48704-43.90912 50.70848v289.32096c0 28.0576 19.1488 50.70848 43.90912 50.70848z" p-id="2161"></path></svg>