<svg width="10" height="10" viewBox="0 0 10 10" fill="none" xmlns="http://www.w3.org/2000/svg">
<path fill-rule="evenodd" clip-rule="evenodd" d="M8.53553 1.46447C7.59785 0.526784 6.32608 0 5 0C3.67392 0 2.40215 0.526784 1.46447 1.46447C0.526784 2.40215 0 3.67392 0 5C0 6.32608 0.526784 7.59785 1.46447 8.53553C2.40215 9.47322 3.67392 10 5 10C6.32608 10 7.59785 9.47322 8.53553 8.53553C9.47322 7.59785 10 6.32608 10 5C10 3.67392 9.47322 2.40215 8.53553 1.46447ZM7.16382 3.19056C7.02946 3.19539 6.90195 3.25111 6.80713 3.34643V3.34571L4.34427 5.84286L3.2607 4.76429L3.2107 4.72071C3.104 4.63848 2.96999 4.59997 2.83591 4.613C2.70182 4.62603 2.57774 4.68963 2.48887 4.79087C2.4 4.89211 2.35301 5.0234 2.35747 5.15804C2.36192 5.29268 2.41748 5.42057 2.51285 5.51571L3.85427 6.85143L3.91142 6.90214C4.04615 7.00939 4.21575 7.0631 4.38766 7.05295C4.55957 7.04279 4.72167 6.9695 4.84285 6.84714L7.56213 4.09071L7.60499 4.04071C7.68629 3.93363 7.72386 3.79965 7.71008 3.66591C7.6963 3.53217 7.63221 3.40866 7.53079 3.3204C7.42936 3.23214 7.29818 3.18573 7.16382 3.19056Z" fill="white"/>
</svg>
