<?xml version="1.0" standalone="no"?><!DOCTYPE svg PUBLIC "-//W3C//DTD SVG 1.1//EN" "http://www.w3.org/Graphics/SVG/1.1/DTD/svg11.dtd"><svg t="1761643465191" class="icon" viewBox="0 0 1024 1024" version="1.1" xmlns="http://www.w3.org/2000/svg" p-id="1685" xmlns:xlink="http://www.w3.org/1999/xlink" width="200" height="200"><path d="M204.84096 89.06752V133.5296a89.088 89.088 0 0 0 89.04704 89.06752h44.48256A89.088 89.088 0 0 0 427.4176 133.5296V89.06752A89.088 89.088 0 0 0 338.37056 0H293.888a89.088 89.088 0 0 0-89.04704 89.06752z m0 400.6912v44.48256a89.088 89.088 0 0 0 89.04704 89.04704h44.48256a89.088 89.088 0 0 0 89.04704-89.04704v-44.48256a89.088 89.088 0 0 0-89.04704-89.04704H293.888a89.088 89.088 0 0 0-89.04704 89.04704z m0 400.71168v44.46208A89.088 89.088 0 0 0 293.888 1024h44.48256a89.088 89.088 0 0 0 89.04704-89.06752V890.4704a89.088 89.088 0 0 0-89.04704-89.06752H293.888a89.088 89.088 0 0 0-89.04704 89.06752zM596.00896 89.06752V133.5296a89.088 89.088 0 0 0 89.04704 89.06752h44.48256A89.088 89.088 0 0 0 818.5856 133.5296V89.06752A89.088 89.088 0 0 0 729.53856 0H685.056a89.088 89.088 0 0 0-89.04704 89.06752z m0 400.6912v44.48256a89.088 89.088 0 0 0 89.04704 89.04704h44.48256a89.088 89.088 0 0 0 89.04704-89.04704v-44.48256a89.088 89.088 0 0 0-89.04704-89.04704H685.056a89.088 89.088 0 0 0-89.04704 89.04704z m0 400.71168v44.46208A89.088 89.088 0 0 0 685.056 1024h44.48256a89.088 89.088 0 0 0 89.04704-89.06752V890.4704a89.088 89.088 0 0 0-89.04704-89.06752H685.056a89.088 89.088 0 0 0-89.04704 89.06752z" p-id="1686"></path></svg>