<?xml version="1.0" standalone="no"?><!DOCTYPE svg PUBLIC "-//W3C//DTD SVG 1.1//EN" "http://www.w3.org/Graphics/SVG/1.1/DTD/svg11.dtd"><svg t="1761707851420" class="icon" viewBox="0 0 1024 1024" version="1.1" xmlns="http://www.w3.org/2000/svg" p-id="1964" xmlns:xlink="http://www.w3.org/1999/xlink" width="200" height="200"><path d="M512 0.001024A510.974978 510.974978 0 0 0 0.001024 512a510.974978 510.974978 0 0 0 511.998976 511.998976 510.974978 510.974978 0 0 0 511.998976-511.998976A510.974978 510.974978 0 0 0 512 0.001024z m220.569159 669.530821c15.728609 15.769568 15.728609 47.267745 0 70.901618-15.769568 23.633873-47.288225 15.769568-70.901618 0l-157.552325-157.552325-157.531845 157.552325c-15.769568 15.769568-47.267745 15.769568-70.881138 0-23.633873-15.769568-15.769568-47.267745 0-70.901618L433.234078 512l-157.552325-157.531845c-15.749089-15.769568-15.749089-47.267745 0-70.901618 15.769568-23.633873 47.267745-15.769568 70.901618 0l157.531845 157.531845 157.552325-157.531845c15.749089-15.769568 47.247266-15.769568 70.881138 0s15.769568 47.267745 0 70.901618L575.016834 512l157.531845 157.531845z" p-id="1965"></path></svg>