<?xml version="1.0" standalone="no"?><!DOCTYPE svg PUBLIC "-//W3C//DTD SVG 1.1//EN" "http://www.w3.org/Graphics/SVG/1.1/DTD/svg11.dtd"><svg class="icon" width="16px" height="16.00px" viewBox="0 0 1024 1024" version="1.1" xmlns="http://www.w3.org/2000/svg"><path d="M747.99104 624.00512a404.82816 404.82816 0 0 0 63.488-217.86624C811.45856 181.8624 629.84192 0 405.85216 0 181.61664 0 0 181.8624 0 406.1184c0 224.27648 181.59616 406.13888 405.6064 406.13888 81.32608 0 157.06112-23.98208 220.52864-65.06496l18.39104-12.8L934.13376 1024 1024 932.53632l-289.34144-289.5872 13.33248-18.944z m-114.93376-444.8256a318.50496 318.50496 0 0 1 93.85984 226.67264c0 85.6064-33.32096 166.13376-93.85984 226.67264a318.50496 318.50496 0 0 1-226.67264 93.85984c-85.6064 0-166.13376-33.32096-226.65216-93.85984a318.50496 318.50496 0 0 1-93.88032-226.67264c0-85.6064 33.34144-166.13376 93.88032-226.67264a318.50496 318.50496 0 0 1 226.65216-93.85984c85.6064 0 166.13376 33.34144 226.67264 93.85984z" /></svg>