<?xml version="1.0" standalone="no"?><!DOCTYPE svg PUBLIC "-//W3C//DTD SVG 1.1//EN" "http://www.w3.org/Graphics/SVG/1.1/DTD/svg11.dtd"><svg t="1762494047214" class="icon" viewBox="0 0 1024 1024" version="1.1" xmlns="http://www.w3.org/2000/svg" p-id="2173" xmlns:xlink="http://www.w3.org/1999/xlink" width="200" height="200"><path d="M512 0c282.25536 0 512 229.74464 512 512S794.25536 1024 512 1024 0 794.25536 0 512 229.74464 0 512 0z m0 399.60576c-20.00896 0-37.4784 17.44896-37.4784 37.4784v352.1536c2.47808 20.00896 17.46944 35.00032 37.4784 35.00032 20.00896 0 37.4784-17.53088 37.4784-37.4784V434.60608c-2.47808-20.00896-17.46944-35.0208-37.4784-35.0208z m0-187.33056a50.11456 50.11456 0 0 0-49.9712 49.9712A50.09408 50.09408 0 0 0 512 312.15616a50.09408 50.09408 0 0 0 49.9712-49.90976 50.11456 50.11456 0 0 0-49.9712-49.9712z" p-id="2174"></path></svg>
