<?xml version="1.0" standalone="no"?><!DOCTYPE svg PUBLIC "-//W3C//DTD SVG 1.1//EN" "http://www.w3.org/Graphics/SVG/1.1/DTD/svg11.dtd"><svg t="1762396742563" class="icon" viewBox="0 0 1024 1024" version="1.1" xmlns="http://www.w3.org/2000/svg" p-id="2154" xmlns:xlink="http://www.w3.org/1999/xlink" width="200" height="200"><path d="M512 97.28C229.19168 97.28 0 282.97216 0 512c0 229.00736 229.19168 414.72 512 414.72S1024 740.98688 1024 512C1024 282.97216 794.80832 97.28 512 97.28z m3.6864 723.72224c-164.43392 0-297.6768-136.3968-297.6768-304.59904 0-168.18176 133.24288-304.57856 297.65632-304.57856s297.65632 136.3968 297.65632 304.57856-133.24288 304.59904-297.65632 304.59904z" p-id="2155"></path><path d="M514.56 327.68C411.40224 327.68 327.68 410.17344 327.68 512c0 101.84704 83.64032 184.32 186.88 184.32s186.88-82.47296 186.88-184.32c0-101.82656-83.64032-184.32-186.88-184.32z" p-id="2156"></path></svg>