<?xml version="1.0" standalone="no"?><!DOCTYPE svg PUBLIC "-//W3C//DTD SVG 1.1//EN" "http://www.w3.org/Graphics/SVG/1.1/DTD/svg11.dtd"><svg t="1762326244104" class="icon" viewBox="0 0 1024 1024" version="1.1" xmlns="http://www.w3.org/2000/svg" p-id="8396" xmlns:xlink="http://www.w3.org/1999/xlink" width="200" height="200"><path d="M853.34016 0A170.65984 170.65984 0 0 1 1024 170.65984v682.68032A170.65984 170.65984 0 0 1 853.34016 1024H170.65984A170.65984 170.65984 0 0 1 0 853.34016V170.65984A170.65984 170.65984 0 0 1 170.65984 0h682.68032zM512 466.24768L301.75232 256 256 301.75232 466.24768 512 256 722.24768l45.75232 45.75232L512 557.75232 722.24768 768l45.75232-45.75232L557.75232 512 768 301.75232 722.24768 256 512 466.24768z" p-id="8397"></path></svg>
