<?xml version="1.0" standalone="no"?><!DOCTYPE svg PUBLIC "-//W3C//DTD SVG 1.1//EN" "http://www.w3.org/Graphics/SVG/1.1/DTD/svg11.dtd"><svg t="1762935414785" class="icon" viewBox="0 0 1024 1024" version="1.1" xmlns="http://www.w3.org/2000/svg" p-id="11418" xmlns:xlink="http://www.w3.org/1999/xlink" width="200" height="200"><path d="M819.17952 40.96h-614.4C91.648 40.96 0 147.16928 0 278.1184v468.7872C0 877.83424 91.66848 983.04 204.75904 983.04h614.4C932.352 983.04 1024 877.83424 1024 746.9056V278.1184C1024 147.1488 932.33152 40.96 819.17952 40.96z m-109.21984 473.96864l249.856-170.10688V680.96l-249.856-166.03136zM204.75904 113.2544h614.4c73.03168 0 133.4272 66.43712 140.04224 149.66784L512 567.45984 64.512 262.73792c6.73792-83.1488 67.3792-149.46304 140.24704-149.46304zM63.8976 344.61696l250.14272 170.31168L63.8976 681.1648V344.61696z m755.28192 565.84192h-614.4c-72.82688 0-133.40672-65.04448-140.24704-147.94752l309.71904-205.824 0.55296-0.38912 121.344 82.61632c4.85376 3.2768 10.32192 4.97664 15.85152 4.97664s10.99776-1.69984 15.85152-4.97664l121.344-82.61632 0.55296 0.4096 309.43232 205.6192c-6.71744 82.98496-67.072 148.13184-140.00128 148.13184z" p-id="11419"></path></svg>