<?xml version="1.0" standalone="no"?><!DOCTYPE svg PUBLIC "-//W3C//DTD SVG 1.1//EN" "http://www.w3.org/Graphics/SVG/1.1/DTD/svg11.dtd"><svg t="1761715127288" class="icon" viewBox="0 0 1024 1024" version="1.1" xmlns="http://www.w3.org/2000/svg" p-id="1993" xmlns:xlink="http://www.w3.org/1999/xlink" width="200" height="200"><path d="M241.50016 729.02656h149.23776c34.11968 0 28.42624 28.42624 21.31968 42.63936l-42.63936 85.27872c-17.05984 17.05984-35.5328 21.31968-42.63936 21.31968H49.62304c-59.6992 0-53.30944-56.85248-42.63936-85.27872l255.83616-554.33216c17.05984-34.0992 49.74592-42.63936 63.95904-42.63936h149.23776c59.6992 0 81.7152 42.63936 85.27872 63.95904l149.23776 575.65184c8.54016 34.11968-24.86272 42.63936-42.63936 42.63936h-85.27872c-42.63936 0-60.416-35.5328-63.95904-53.28896l-106.5984-415.744c-8.51968-34.11968-24.86272-14.2336-31.98976 0l-138.56768 277.15584c-25.6 34.0992-10.6496 42.63936 0 42.63936zM809.02144 247.45984a104.12032 104.12032 0 0 1 105.90208-102.2976l4.97664 0.1024a104.12032 104.12032 0 0 1 102.2976 105.8816l-1.18784 67.46112a41.63584 41.63584 0 0 1-42.35264 40.89856l-67.44064-1.16736a104.12032 104.12032 0 0 1-102.27712-105.90208l0.08192-4.97664zM805.0688 471.51104a62.464 62.464 0 0 1 67.01056-57.58976l88.00256 6.63552a62.464 62.464 0 0 1 57.58976 66.99008l-25.86624 343.1424a62.464 62.464 0 0 1-66.99008 57.58976l-88.02304-6.63552a62.464 62.464 0 0 1-57.58976-66.99008l25.88672-343.1424z" p-id="1994"></path></svg>