<?xml version="1.0" standalone="no"?><!DOCTYPE svg PUBLIC "-//W3C//DTD SVG 1.1//EN" "http://www.w3.org/Graphics/SVG/1.1/DTD/svg11.dtd"><svg t="1762755626778" class="icon" viewBox="0 0 1024 1024" version="1.1" xmlns="http://www.w3.org/2000/svg" p-id="5232" xmlns:xlink="http://www.w3.org/1999/xlink" width="200" height="200"><path d="M757.813848 34.996323l-1.474392-1.474391L211.879394 0.204777l-0.061433 0.163821c-13.597167-1.965855-27.542455 4.300309-34.136262 17.139803-7.781511 15.071559-2.334453 33.173812 11.487968 42.368281l-0.450508 1.167227 162.531199 162.510721c-56.067837 79.391893-248.025435 392.147217-97.760356 773.64605h0.204776c1.945378 9.54259 7.535779 18.225119 16.791683 23.016891 16.177353 8.375364 36.245461 1.986333 44.559391-14.170542 1.064838-2.047766 1.22866-4.300309 1.822512-6.429985l0.921495 0.020477s38.35466-326.454879 306.591547-502.931365l169.043095 169.00214 0.409554-0.204777c6.778106 6.716673 16.013531 10.791728 26.129496 9.829278a33.112379 33.112379 0 0 0 29.754042-36.081639L816.03184 93.193837c-3.071649-31.330822-28.136307-54.409146-58.217992-58.197514z" p-id="5233"></path></svg>