<?xml version="1.0" standalone="no"?><!DOCTYPE svg PUBLIC "-//W3C//DTD SVG 1.1//EN" "http://www.w3.org/Graphics/SVG/1.1/DTD/svg11.dtd"><svg t="1762393283157" class="icon" viewBox="0 0 1347 1024" version="1.1" xmlns="http://www.w3.org/2000/svg" p-id="2053" xmlns:xlink="http://www.w3.org/1999/xlink" width="263.0859375" height="200"><path d="M1067.52 487.208421v507.796211h-149.477053V487.397053h149.450106v-0.188632z m165.591579-148.614737c4.877474 0 9.269895 3.098947 11.15621 7.518316l6.036211 14.012632a102.669474 102.669474 0 0 0 53.894737 53.840842l17.030737 7.141052c0.269474 0 0.431158 0.538947 0.700631 0.538948 0.242526 0 0.592842 0.350316 0.835369 0.350315 0.269474 0 0.458105 0.538947 0.700631 0.538948a10.374737 10.374737 0 0 1 0.862316 0.700631c0.215579 0.161684 0.296421 0.296421 0.512 0.538948 0.188632 0.161684 0.512 0.458105 0.673684 0.673684 0.188632 0.215579 0.350316 0.458105 0.350316 0.700632 0.188632 0.242526 0.700632 0.458105 0.700632 0.700631 0 0.242526 0.512 0.431158 0.512 0.700632 0 0.269474 0.161684 0.431158 0.161684 0.700631 0 0.269474 0.350316 0.592842 0.350316 0.862316 0 0.269474 0.350316 0.592842 0.350315 0.862316 0 0.269474 0.350316 0.431158 0.350316 0.727579 0 0.269474 0.161684 0.565895 0.161684 0.862316v3.503158c0 0.269474-0.161684 0.565895-0.161684 0.862315 0 0.269474-0.377263 0.431158-0.377263 0.700632 0 0.269474-0.323368 0.619789-0.323368 0.889263 0 0.269474-0.350316 0.592842-0.350316 0.862316 0 0.269474-0.161684 0.619789-0.161684 0.862316 0 0.269474-0.538947 0.458105-0.538948 0.727579 0 0.215579-0.485053 0.458105-0.673684 0.673684 0 0.242526-0.134737 0.485053-0.350316 0.700631-0.161684 0.215579-0.485053 0.323368-0.673684 0.538948-0.215579 0.188632-0.296421 0.512-0.512 0.700631-0.215579 0.161684-0.646737 0.350316-0.862316 0.538948-0.269474 0-0.458105 0.512-0.673684 0.512-0.269474 0-0.619789 0.350316-0.862316 0.350315-0.269474 0-0.431158 0.512-0.700631 0.512l-18.216421 7.868632c-1.428211 0.619789-2.829474 1.401263-4.311579 2.101895-1.401263 0.700632-2.883368 1.347368-4.284632 2.101895-1.374316 0.754526-2.910316 1.616842-4.257684 2.425263-1.401263 0.835368-2.667789 1.778526-3.961263 2.640842-1.347368 0.889263-2.506105 1.670737-3.772632 2.613895-1.293474 0.943158-2.56 1.994105-3.772631 2.96421-1.266526 1.024-2.425263 1.940211-3.637895 2.991158-1.158737 1.077895-2.290526 2.209684-3.422316 3.314526-1.131789 1.104842-2.371368 2.155789-3.449263 3.314527-1.077895 1.158737-2.048 2.479158-3.098947 3.691789-1.024 1.185684-2.101895 2.236632-3.072 3.503158-0.970105 1.239579-1.859368 2.694737-2.748632 4.042105a98.007579 98.007579 0 0 0-7.221895 12.045474c-0.700632 1.401263-1.266526 2.748632-1.886316 4.176842l-6.03621 13.123368c0 0.269474-0.323368 0.619789-0.323369 0.889264 0 0.242526-0.538947 0.269474-0.538947 0.538947 0 0.215579-0.323368 0.431158-0.323368 0.673684 0 0.215579-0.485053 0.485053-0.700632 0.700632-0.161684 0.215579-0.296421 0.485053-0.512 0.700631-0.188632 0.215579-0.458105 0.323368-0.673684 0.538948-0.215579 0.161684-0.458105 0.485053-0.700632 0.673684-0.215579 0.188632-0.431158 0.538947-0.673684 0.538947-0.242526 0-0.592842 0.350316-0.862316 0.350316-0.269474 0-0.404211 0.538947-0.673684 0.538947-0.269474 0-0.431158 0.161684-0.700631 0.161685-0.269474 0-0.727579 0.350316-1.024 0.350315-0.269474 0-0.404211 0.161684-0.700632 0.161685-0.269474 0-0.727579 0.188632-1.024 0.188631s-0.538947 0.161684-0.862316 0.161684h-1.724631c-0.269474 0-0.538947-0.188632-0.835369-0.188631s-0.754526-0.161684-1.050947-0.161684c-0.269474 0-0.404211-0.188632-0.673684-0.188632-0.269474 0-0.592842-0.323368-0.862316-0.323368-0.269474 0-0.592842-0.188632-0.862316-0.188632-0.269474 0-0.431158-0.538947-0.673684-0.538947-0.269474 0-0.619789-0.350316-0.862316-0.350316-0.269474 0-0.458105-0.323368-0.700632-0.512-0.242526-0.161684-0.458105-0.512-0.700631-0.700632-0.215579-0.188632-0.296421-0.296421-0.485053-0.538947-0.215579-0.188632-0.538947-0.458105-0.700631-0.673684-0.188632-0.215579-0.512-0.485053-0.512-0.700632 0-0.269474-0.538947-0.458105-0.538948-0.700631 0-0.269474-0.485053-0.269474-0.485052-0.538948 0-0.242526-0.377263-0.592842-0.377264-0.862316l-5.820631-13.123368c-0.619789-1.428211-1.347368-2.802526-2.048-4.176842a100.082526 100.082526 0 0 0-7.221895-12.072421c-0.916211-1.293474-1.778526-2.775579-2.748631-4.042105a104.070737 104.070737 0 0 0-2.910316-3.664843c-1.024-1.185684-2.209684-2.344421-3.260632-3.503157-1.077895-1.158737-1.994105-2.209684-3.098947-3.314527-1.131789-1.077895-2.425263-2.263579-3.610948-3.314526-1.185684-1.050947-2.371368-2.155789-3.610947-3.152842-1.239579-0.997053-2.506105-1.859368-3.772631-2.802526a106.522947 106.522947 0 0 0-3.961264-2.775579c-1.320421-0.916211-2.586947-1.832421-3.961263-2.640843-1.347368-0.808421-2.694737-1.670737-4.096-2.425263-1.428211-0.781474-2.883368-1.401263-4.311579-2.128842l-4.311579-1.913263-18.189473-7.868632c-0.269474 0-0.592842-0.350316-0.862316-0.350315-0.269474 0-0.431158-0.538947-0.700632-0.538948-0.215579 0-0.431158-0.350316-0.673684-0.350315-0.242526-0.161684-0.458105-0.485053-0.673684-0.673685-0.242526-0.188632-0.485053-0.512-0.700632-0.700631-0.215579-0.215579-0.485053-0.323368-0.673684-0.538948l-0.538947-0.700631c-0.188632-0.242526-0.512-0.458105-0.512-0.673684 0-0.269474-0.485053-0.458105-0.485053-0.727579 0-0.242526-0.377263-0.431158-0.377263-0.673685 0-0.269474-0.323368-0.619789-0.323369-0.889263 0-0.269474-0.377263-0.592842-0.377263-0.862316 0-0.269474-0.161684-0.592842-0.161684-0.889263 0-0.269474-0.161684-0.565895-0.161684-0.862315v-3.503158c0-0.269474 0.161684-0.592842 0.161684-0.862316 0-0.296421 0.188632-0.431158 0.188632-0.727579 0-0.269474 0.350316-0.592842 0.350315-0.862316 0-0.269474 0.350316-0.619789 0.350316-0.862316 0-0.269474 0.350316-0.458105 0.350316-0.700631 0-0.269474 0.485053-0.458105 0.485053-0.700632 0-0.269474 0.350316-0.458105 0.538947-0.727579 0.161684-0.215579 0.296421-0.458105 0.512-0.673684a8.299789 8.299789 0 0 1 0.673684-0.700632c0.215579-0.215579 0.458105-0.350316 0.700632-0.538947 0.215579-0.188632 0.431158-0.512 0.673684-0.700632 0.269474 0 0.458105-0.538947 0.673684-0.538947 0.269474 0 0.458105-0.323368 0.700632-0.323368 0.269474 0 0.592842-0.538947 0.862316-0.538948l17.003789-7.141052a103.504842 103.504842 0 0 0 53.948632-53.86779l5.820631-14.012631c0-0.269474 0.538947-0.565895 0.538948-0.862316 0-0.242526 0.512-0.592842 0.512-0.862316 0-0.269474 0.538947-0.458105 0.538947-0.700632 0-0.242526 0.134737-0.485053 0.323368-0.700631l0.673685-0.700632 0.538947-0.538947 0.835368-0.673684c0.242526-0.188632 0.458105-0.377263 0.700632-0.377263 0.242526 0 0.592842-0.512 0.862316-0.512 0.269474 0 0.404211-0.512 0.673684-0.512 0.269474 0 0.592842-0.188632 0.862316-0.188632 0.269474 0 0.538947-0.350316 0.862316-0.350316 0.269474 0 0.404211-0.161684 0.673684-0.161684 0.296421 0 0.727579-0.188632 1.050947-0.188632 0.269474 0 0.538947-0.188632 0.835369-0.188631h1.050947v0.026947zM1013.382737 15.818105c9.296842 0 17.704421 5.335579 21.153684 13.635369l21.288421 49.664c17.946947 42.415158 52.250947 76.422737 95.501474 95.12421l55.834947 24.117895a22.474105 22.474105 0 0 1 0 41.418105l-57.882947 24.845474a181.490526 181.490526 0 0 0-93.965474 92.16l-20.965053 46.511158c0 0.242526-0.350316 0.458105-0.350315 0.700631 0 0.215579-0.350316 0.458105-0.350316 0.700632 0 0.242526-0.323368 0.458105-0.323369 0.673684 0 0.269474-0.350316 0.485053-0.350315 0.727579 0 0.215579-0.538947 0.458105-0.538948 0.673684 0 0.242526-0.512 0.323368-0.512 0.538948s-0.485053 0.485053-0.485052 0.700631-0.350316 0.485053-0.538948 0.700632c-0.161684 0.215579-0.161684 0.485053-0.350315 0.727579-0.188632 0.161684-0.485053 0.269474-0.673685 0.485052-0.161684 0.188632-0.485053 0.350316-0.673684 0.538948l-0.538947 0.538947c-0.188632 0.161684-0.458105 0.512-0.673684 0.512s-0.296421 0.538947-0.538948 0.538948c-0.188632 0-0.619789 0.512-0.808421 0.512-0.269474 0-0.323368 0.538947-0.538947 0.538947s-0.619789 0.323368-0.862316 0.323368c-0.242526 0-0.269474 0.538947-0.512 0.538948-0.269474 0-0.619789 0.161684-0.862316 0.161684-0.242526 0-0.431158 0.538947-0.700631 0.538947-0.215579 0-0.592842 0.161684-0.835369 0.161684-0.269474 0-0.458105 0.377263-0.700631 0.377264-0.269474 0-0.592842 0.161684-0.862316 0.161684-0.269474 0-0.431158 0.350316-0.673684 0.350316-0.269474 0-0.592842 0.161684-0.862316 0.161684-0.269474 0-0.431158 0.188632-0.700632 0.188631-0.269474 0-0.565895 0.188632-0.862316 0.188632-0.269474 0-0.565895 0.161684-0.835368 0.161684-0.269474 0-0.431158 0.161684-0.700632 0.161684h-4.985263c-0.269474 0-0.565895-0.161684-0.835368-0.161684-0.269474 0-0.619789-0.188632-0.889263-0.188631-0.269474 0-0.404211-0.188632-0.673685-0.188632-0.269474 0-0.781474-0.188632-1.024-0.188632-0.269474 0-0.431158-0.161684-0.700631-0.161684-0.269474 0-0.431158-0.350316-0.673684-0.350316-0.269474 0-0.592842-0.161684-0.862316-0.161684-0.269474 0-0.431158-0.350316-0.673684-0.350316-0.269474 0-0.619789-0.188632-0.889263-0.188631-0.269474 0-0.431158-0.538947-0.673685-0.538947-0.242526 0-0.619789-0.161684-0.862315-0.161685-0.242526 0-0.269474-0.512-0.512-0.512-0.215579 0-0.619789-0.350316-0.862316-0.350315-0.215579 0-0.269474-0.538947-0.512-0.538948-0.215579 0-0.458105-0.538947-0.673684-0.538947-0.242526 0-0.485053-0.485053-0.700632-0.485053s-0.485053-0.377263-0.700632-0.538947c-0.188632-0.161684-0.485053-0.323368-0.673684-0.538948l-0.512-0.512-0.538947-0.538947c-0.161684-0.161684-0.323368-0.458105-0.485053-0.673684-0.188632-0.215579-0.538947-0.485053-0.538947-0.727579 0-0.161684-0.512-0.458105-0.512-0.673684s-0.323368-0.296421-0.323369-0.538948c0-0.215579-0.538947-0.458105-0.538947-0.673684 0-0.269474-0.512-0.485053-0.512-0.727579 0-0.215579-0.350316-0.431158-0.350316-0.673684 0-0.242526-0.323368-0.485053-0.323368-0.700632 0-0.269474-0.323368-0.458105-0.323369-0.700631l-20.965052-46.511158-1.724632-3.69179c-0.619789-1.266526-1.266526-2.425263-1.886316-3.664842-0.646737-1.239579-1.239579-2.613895-1.886315-3.853473l-2.074948-3.664842c-0.700632-1.212632-1.509053-2.290526-2.236631-3.503158-0.727579-1.185684-1.320421-2.479158-2.048-3.664842-0.754526-1.185684-1.455158-2.344421-2.236632-3.503158l-2.425263-3.503158-2.398316-3.287579c-0.808421-1.158737-1.536-2.209684-2.398316-3.341474l-2.748631-3.314526c-0.889263-1.077895-1.832421-2.074947-2.748632-3.152842-0.916211-1.077895-1.805474-2.290526-2.748631-3.341474-0.943158-1.024-1.805474-2.101895-2.748632-3.125895-0.943158-1.024-1.940211-1.967158-2.910316-2.96421-0.970105-1.024-2.101895-1.994105-3.072-2.964211-1.024-0.997053-1.751579-2.021053-2.775579-2.991158-1.024-0.970105-2.236632-1.886316-3.233684-2.802526l-3.287579-2.802526c-1.077895-0.916211-2.155789-1.724632-3.260631-2.613895-1.077895-0.916211-1.994105-1.751579-3.098948-2.640842a180.493474 180.493474 0 0 0-3.449263-2.586948c-1.131789-0.862316-2.425263-1.643789-3.610947-2.45221-1.131789-0.808421-2.074947-1.670737-3.260632-2.452211-1.158737-0.808421-2.425263-1.697684-3.584-2.425263-1.212632-0.808421-2.425263-1.401263-3.637895-2.128842-1.185684-0.727579-2.533053-1.401263-3.772631-2.101895-1.212632-0.700632-2.344421-1.428211-3.610948-2.101894-1.239579-0.673684-2.344421-1.455158-3.610947-2.101895-1.266526-0.646737-2.667789-1.293474-3.934316-1.886316-1.266526-0.646737-2.506105-1.185684-3.772631-1.778526a177.044211 177.044211 0 0 0-3.961264-1.751579l-57.559578-24.845474c-0.269474 0-0.431158-0.161684-0.700632-0.161684-0.215579 0-0.592842-0.538947-0.835368-0.538947-0.242526 0-0.431158-0.350316-0.700632-0.350316-0.215579 0-0.619789-0.323368-0.835368-0.323369-0.242526 0-0.296421-0.538947-0.538948-0.538947-0.215579 0-0.458105-0.538947-0.673684-0.538947s-0.458105-0.485053-0.673684-0.485053-0.485053-0.188632-0.700632-0.377263c-0.215579-0.161684-0.485053-0.512-0.673684-0.673684l-0.538947-0.538948a35.247158 35.247158 0 0 1-0.673685-0.700631c-0.188632-0.188632-0.188632-0.296421-0.350315-0.538948-0.188632-0.188632-0.538947-0.485053-0.673685-0.673684-0.188632-0.215579-0.538947-0.323368-0.538947-0.538947s-0.323368-0.458105-0.323368-0.700632c0-0.215579-0.700632-0.458105-0.700632-0.673684 0-0.269474-0.350316-0.485053-0.350316-0.727579 0-0.215579-0.323368-0.458105-0.323368-0.700632 0-0.242526-0.538947-0.458105-0.538948-0.700631 0-0.215579-0.323368-0.431158-0.323368-0.700632 0-0.242526-0.350316-0.431158-0.350316-0.673684 0-0.269474-0.188632-0.619789-0.188631-0.889263 0-0.269474-0.323368-0.431158-0.323369-0.700632 0-0.269474-0.350316-0.619789-0.350316-0.862315 0-0.269474-0.161684-0.431158-0.161684-0.700632 0-0.269474-0.188632-0.619789-0.188631-0.889263 0-0.269474-0.161684-0.431158-0.161685-0.700632 0-0.269474-0.161684-0.592842-0.161684-0.862316v-1.751578c0-0.269474-0.188632-0.269474-0.188631-0.538948V218.273684c0-0.269474 0.188632-0.592842 0.188631-0.862316V215.848421c0-0.269474 0.161684-0.619789 0.161684-0.889263 0-0.269474 0.188632-0.431158 0.188632-0.673684 0-0.269474 0.161684-0.619789 0.161684-0.889263 0-0.269474 0.161684-0.431158 0.161684-0.700632 0-0.269474 0.350316-0.619789 0.350316-0.862316 0-0.269474 0.350316-0.458105 0.350316-0.700631 0-0.269474 0.188632-0.619789 0.188632-0.889264 0-0.269474 0.323368-0.458105 0.323368-0.700631 0-0.242526 0.350316-0.458105 0.350316-0.700632 0-0.242526 0.538947-0.458105 0.538947-0.700631 0-0.242526 0.296421-0.458105 0.296421-0.673685 0-0.269474 0.377263-0.485053 0.377263-0.727578 0-0.215579 0.646737-0.458105 0.646737-0.700632 0-0.215579 0.377263-0.269474 0.377263-0.512 0-0.215579 0.323368-0.485053 0.512-0.727579 0.161684-0.161684 0.512-0.458105 0.673685-0.673684 0.188632-0.215579 0.161684-0.323368 0.350315-0.538948l0.700632-0.673684 0.512-0.538947c0.188632-0.188632 0.458105-0.350316 0.673684-0.538948 0.215579-0.161684 0.485053-0.512 0.700632-0.512s0.458105-0.538947 0.673684-0.538947 0.458105-0.512 0.700632-0.512c0.215579 0 0.269474-0.350316 0.512-0.350316 0.215579 0 0.619789-0.538947 0.835368-0.538947 0.269474 0 0.458105-0.512 0.700632-0.512 0.269474 0 0.619789-0.161684 0.862315-0.161684 0.242526 0 0.431158-0.350316 0.673685-0.350316l55.861894-24.117895c1.320421-0.592842 2.613895-0.970105 3.934316-1.589895 1.320421-0.619789 2.479158-1.266526 3.772632-1.913263l4.122947-2.101894c1.293474-0.673684 2.506105-1.239579 3.772632-1.913264l3.772631-2.101894c1.293474-0.727579 2.56-1.697684 3.772632-2.452211 1.266526-0.781474 2.425263-1.320421 3.637894-2.101895 1.212632-0.808421 2.586947-1.832421 3.772632-2.613894 1.212632-0.808421 2.263579-1.616842 3.449263-2.452211 1.158737-0.862316 2.425263-1.616842 3.584-2.425263 1.158737-0.889263 2.128842-1.778526 3.260632-2.667789l3.449263-2.775579 3.260632-2.802527 3.287578-2.802526c1.024-0.970105 2.209684-1.967158 3.233685-2.964211a155.701895 155.701895 0 0 0 9.10821-9.269894l2.748632-3.152842c0.943158-1.077895 1.832421-2.209684 2.748631-3.314527 0.916211-1.077895 1.859368-2.182737 2.748632-3.341473 1.778526-2.209684 3.503158-4.500211 5.146947-6.817685 0.862316-1.158737 1.616842-2.479158 2.425263-3.664842 0.808421-1.185684 1.616842-2.290526 2.398316-3.503158 0.781474-1.212632 1.482105-2.425263 2.236632-3.664842l2.236631-3.664842c0.700632-1.239579 1.347368-2.586947 2.048-3.853474 0.700632-1.266526 1.428211-2.425263 2.074948-3.664842l1.886316-3.853473c0.619789-1.266526 1.131789-2.533053 1.697684-3.853474l1.724631-3.826526 21.342316-49.664c0-0.269474 0.323368-0.458105 0.323369-0.700632 0-0.269474 0.350316-0.458105 0.350315-0.700631 0-0.242526 0.350316-0.458105 0.350316-0.700632 0-0.269474 0.512-0.458105 0.512-0.700632 0-0.242526 0.350316-0.458105 0.350316-0.700631 0-0.215579 0.323368-0.485053 0.323368-0.700632s0.700632-0.485053 0.700632-0.700631 0.350316-0.296421 0.538947-0.538948c0.161684-0.188632 0.296421-0.485053 0.485053-0.673684 0.188632-0.215579 0.323368-0.512 0.512-0.700632 0.188632-0.188632 0.485053-0.323368 0.700632-0.538947 0.188632-0.188632 0.296421-0.350316 0.538947-0.538947l0.673684-0.512c0.188632-0.188632 0.269474-0.538947 0.485053-0.538948 0.242526 0 0.646737-0.512 0.862316-0.512 0.242526 0 0.269474-0.512 0.538947-0.512 0.215579 0 0.592842-0.350316 0.835368-0.350315 0.242526 0 0.269474-0.377263 0.538948-0.377264 0.242526 0 0.592842-0.485053 0.835368-0.485052 0.269474 0 0.458105-0.377263 0.700632-0.377263 0.269474 0 0.592842-0.350316 0.862315-0.350316 0.242526 0 0.431158-0.161684 0.673685-0.161684 0.269474 0 0.592842-0.350316 0.862315-0.350316 0.269474 0 0.592842-0.161684 0.862316-0.161684 0.269474 0 0.431158-0.377263 0.700632-0.377264 0.269474 0 0.565895-0.161684 0.835368-0.161684 0.269474 0 0.431158-0.188632 0.700632-0.188631h1.024c0.269474 0 0.404211-0.161684 0.700631-0.161685 0.269474 0 0.727579-0.161684 1.024-0.161684h1.536-0.188631zM272.653474 88.387368h246.487579l249.802105 906.617264h-153.061053l-57.559579-209.300211H233.472l-57.397895 209.300211H22.851368l249.802106-906.617264z m-0.538948 557.756632h247.727158L404.399158 227.732211h-17.165474l-115.119158 418.438736z" p-id="2054"></path></svg>
