<?xml version="1.0" standalone="no"?><!DOCTYPE svg PUBLIC "-//W3C//DTD SVG 1.1//EN" "http://www.w3.org/Graphics/SVG/1.1/DTD/svg11.dtd"><svg t="1764208044033" class="icon" viewBox="0 0 1024 1024" version="1.1" xmlns="http://www.w3.org/2000/svg" p-id="9433" xmlns:xlink="http://www.w3.org/1999/xlink" width="200" height="200"><path d="M311.203655 723.984715c66.068136 67.174051 73.727617 139.406635 0.450558 213.871528C266.250289 983.976963 192.727471 1011.706739 91.597757 1023.544118c-5.222373 0.614397-10.506185 0.593917-15.769518-0.04096C40.275144 1019.20238 14.306639 987.581425 15.985991 951.495852l0.368638-4.710375 1.433592-11.960258c12.410815-96.439819 39.259956-167.034011 82.882129-211.352501 73.256579-74.423933 144.342289-66.641573 210.471866 0.511997h0.04096zM916.773626 18.227105l11.427781 3.481582 11.182022 3.727341a96.07118 96.07118 0 0 1 59.186892 59.821769c44.564248 130.231643 30.433122 262.142637-41.430824 392.927236-29.593446 53.8826-67.501729 104.877535-113.62245 152.984805l-12.758973 13.045692-12.083137 11.837379-0.348159 3.68638c-8.396756 78.315113-67.808927 181.922894-177.294438 315.861398l-9.50267 11.57114-17.489829 20.909971c-19.804057 23.490438-56.667865 16.957352-68.198046-10.813384l-1.372153-3.706861-61.234881-195.378184-5.529571-3.82974a972.385344 972.385344 0 0 1-98.07821-79.994464l-15.216561-14.499764-14.909363-14.786483a982.010894 982.010894 0 0 1-118.312345-146.103561l-3.399662-5.242852-199.330803-64.470705c-28.057454-9.093073-37.068607-43.765532-19.27158-65.556139l2.355188-2.662386 2.559986-2.396148C178.043388 255.363792 299.018119 184.319042 385.648068 190.258211l5.570531 0.491517 3.235823 0.389118 7.311322-7.393241c39.321396-39.075637 80.485981-72.334984 123.493758-99.675642l14.397365-8.908754 13.230012-7.72092C673.001454-0.655357 794.91826-17.407909 916.773626 18.227105V18.206625zM549.282417 293.272075c-49.868541 49.889021-49.704702 130.927959 0.409598 181.021779 50.07334 50.07334 131.112278 50.257659 181.001299 0.389118 49.868541-49.889021 49.684222-130.927959-0.409598-181.021779-50.05286-50.09382-131.112278-50.257659-181.001299-0.409598z" p-id="9434"></path></svg>