<?xml version="1.0" standalone="no"?><!DOCTYPE svg PUBLIC "-//W3C//DTD SVG 1.1//EN" "http://www.w3.org/Graphics/SVG/1.1/DTD/svg11.dtd"><svg t="1762396769490" class="icon" viewBox="0 0 1024 1024" version="1.1" xmlns="http://www.w3.org/2000/svg" p-id="2592" xmlns:xlink="http://www.w3.org/1999/xlink" width="200" height="200"><path d="M455.2704 0a102.25664 102.25664 0 0 0-96.9728 70.02112l-11.63264 34.93888c-83.33312 2.74432-149.13536 7.24992-197.4272 11.55072-60.8256 5.4272-109.42464 49.8688-124.2112 109.17888L18.16576 253.1328c-11.61216 46.55104 13.18912 87.8592 60.90752 92.28288 69.79584 6.47168 197.8368 13.0048 430.34624 13.0048 232.50944 0 360.5504-6.5536 430.34624-13.0048 47.7184-4.42368 72.4992-45.73184 60.90752-92.28288l-6.8608-27.40224c-14.80704-59.33056-63.40608-103.77216-124.2112-109.19936a3536.2816 3536.2816 0 0 0-197.48864-11.55072L660.48 70.0416A102.25664 102.25664 0 0 0 563.48672 0h-108.19584z" p-id="2593"></path><path d="M947.24096 204.8c-35.71712 446.30016-58.96192 643.60448-69.75488 722.16576-4.15744 30.04416-20.02944 56.07424-48.9472 65.2288C782.7456 1006.6944 690.66752 1024 512.02048 1024c-178.66752 0-270.7456-17.28512-316.49792-31.78496C166.6048 983.04 150.7328 957.0304 146.59584 926.96576 135.80288 848.40448 112.55808 651.10016 76.84096 204.8h870.4zM395.18208 489.5744a44.68736 44.68736 0 0 0-44.56448 47.88224l16.01536 224.21504a44.6464 44.6464 0 1 0 89.12896-6.3488l-16.01536-224.256a44.66688 44.66688 0 0 0-44.56448-41.49248z m262.38976 0a44.66688 44.66688 0 0 0-44.52352 41.51296L596.992 755.3024a44.66688 44.66688 0 1 0 89.12896 6.3488l16.01536-224.21504a44.68736 44.68736 0 0 0-44.58496-47.88224z" p-id="2594"></path></svg>