<?xml version="1.0" standalone="no"?><!DOCTYPE svg PUBLIC "-//W3C//DTD SVG 1.1//EN" "http://www.w3.org/Graphics/SVG/1.1/DTD/svg11.dtd"><svg t="1764208265480" class="icon" viewBox="0 0 1024 1024" version="1.1" xmlns="http://www.w3.org/2000/svg" p-id="2630" xmlns:xlink="http://www.w3.org/1999/xlink" width="200" height="200"><path d="M498.074135 0c275.062895 0 498.053658 222.990763 498.053658 498.074135a495.965039 495.965039 0 0 1-108.9358 310.835609l120.402726 120.402726a55.327919 55.327919 0 0 1-74.739787 81.51756l-3.521985-3.235311-120.402726-120.361773a495.985516 495.985516 0 0 1-310.83561 108.894847C222.94981 996.127793 0 773.137029 0 498.074135 0 222.94981 222.990763 0 498.074135 0z m208.247572 208.739012a56.884145 56.884145 0 0 0-78.753212-32.25073 56.884145 56.884145 0 0 0-40.113765 40.195672L490.006333 580.103611l-67.368192-251.596649-1.371936-4.422957a56.904622 56.904622 0 0 0-53.66931-37.758951l-3.255788-0.941926a56.863668 56.863668 0 0 0-69.661578 40.216149l-63.620964 237.385851H142.189886a56.843192 56.843192 0 0 0-40.216149 97.100294 56.843192 56.843192 0 0 0 40.216149 16.64752H255.958176a56.720332 56.720332 0 0 0 23.179573-4.914397 56.863668 56.863668 0 0 0 51.826411-42.100001l27.274904-101.912308 72.282589 269.657058 1.269552 4.054378a56.863668 56.863668 0 0 0 68.392025 36.141295l1.023833-0.286674a56.884145 56.884145 0 0 0 48.918726-41.854281l97.91936-365.467322 37.984194 141.821306 1.515272 4.791537a56.945575 56.945575 0 0 0 36.284631 34.769359c8.948298 5.528697 19.289008 8.436381 29.793532 8.415905h113.76829a56.884145 56.884145 0 1 0 0-113.747814h-81.189933l-78.630352-293.287117-1.228599-4.074854z" p-id="2631"></path></svg>