<?xml version="1.0" standalone="no"?><!DOCTYPE svg PUBLIC "-//W3C//DTD SVG 1.1//EN" "http://www.w3.org/Graphics/SVG/1.1/DTD/svg11.dtd"><svg t="1762156960606" class="icon" viewBox="0 0 1024 1024" version="1.1" xmlns="http://www.w3.org/2000/svg" p-id="7690" xmlns:xlink="http://www.w3.org/1999/xlink" width="200" height="200"><path d="M942.08 389.12a81.92 81.92 0 0 1 81.92 81.92v81.92a81.92 81.92 0 0 1-81.92 81.92h-72.45824a81.92 81.92 0 0 1-81.92-81.92v-81.92a81.92 81.92 0 0 1 81.92-81.92H942.08z m-393.8304 0a81.92 81.92 0 0 1 81.92 81.92v81.92a81.92 81.92 0 0 1-81.92 81.92h-72.4992a81.92 81.92 0 0 1-81.92-81.92v-81.92a81.92 81.92 0 0 1 81.92-81.92h72.4992zM154.35776 389.12a81.92 81.92 0 0 1 81.92 81.92v81.92a81.92 81.92 0 0 1-81.92 81.92H81.92a81.92 81.92 0 0 1-81.92-81.92v-81.92a81.92 81.92 0 0 1 81.92-81.92h72.45824z" p-id="7691"></path></svg>
