<?xml version="1.0" standalone="no"?><!DOCTYPE svg PUBLIC "-//W3C//DTD SVG 1.1//EN" "http://www.w3.org/Graphics/SVG/1.1/DTD/svg11.dtd"><svg t="1761643487941" class="icon" viewBox="0 0 1024 1024" version="1.1" xmlns="http://www.w3.org/2000/svg" p-id="2001" xmlns:xlink="http://www.w3.org/1999/xlink" width="200" height="200"><path d="M384 0H85.34016A85.58592 85.58592 0 0 0 0 85.34016V384a85.58592 85.58592 0 0 0 85.34016 85.34016H384a85.58592 85.58592 0 0 0 85.34016-85.34016V85.34016A85.58592 85.58592 0 0 0 384 0z m554.65984 0H640a85.58592 85.58592 0 0 0-85.34016 85.34016V384a85.58592 85.58592 0 0 0 85.34016 85.34016h298.65984A85.58592 85.58592 0 0 0 1024 384V85.34016A85.58592 85.58592 0 0 0 938.65984 0zM384 554.65984H85.34016A85.58592 85.58592 0 0 0 0 640v298.65984A85.58592 85.58592 0 0 0 85.34016 1024H384a85.58592 85.58592 0 0 0 85.34016-85.34016V640a85.58592 85.58592 0 0 0-85.34016-85.34016z m554.65984 0H640a85.58592 85.58592 0 0 0-85.34016 85.34016v298.65984A85.58592 85.58592 0 0 0 640 1024h298.65984A85.58592 85.58592 0 0 0 1024 938.65984V640a85.58592 85.58592 0 0 0-85.34016-85.34016z" p-id="2002"></path></svg>