<?xml version="1.0" standalone="no"?><!DOCTYPE svg PUBLIC "-//W3C//DTD SVG 1.1//EN" "http://www.w3.org/Graphics/SVG/1.1/DTD/svg11.dtd"><svg t="1761715149813" class="icon" viewBox="0 0 1024 1024" version="1.1" xmlns="http://www.w3.org/2000/svg" p-id="2151" xmlns:xlink="http://www.w3.org/1999/xlink" width="200" height="200"><path d="M512 0c282.76736 0 512 229.23264 512 512S794.76736 1024 512 1024 0 794.76736 0 512 229.23264 0 512 0z m-149.77024 235.52a92.16 92.16 0 0 0-92.16 92.16v368.64a92.16 92.16 0 0 0 92.16 92.16h299.52a92.16 92.16 0 0 0 92.16-92.16V434.2784a92.18048 92.18048 0 0 0-26.97216-65.1264l-106.5984-106.65984a92.20096 92.20096 0 0 0-65.18784-26.97216h-192.9216z m212.93056 279.59296a23.06048 23.06048 0 0 1 16.30208 6.7584l0.06144 0.04096a23.04 23.04 0 0 1 0 32.58368l-86.79424 86.79424h47.96416a23.04 23.04 0 1 1 0 46.08h-94.45376c-17.8176 0-32.256-14.45888-32.256-32.27648v-94.45376a23.06048 23.06048 0 1 1 46.08 0v48.08704l86.77376-86.8352a23.06048 23.06048 0 0 1 16.32256-6.7584z m52.03968-141.35296a23.01952 23.01952 0 1 1 0 46.08h-230.4a23.06048 23.06048 0 0 1-16.30208-39.3216c4.32128-4.34176 10.19904-6.7584 16.30208-6.7584h230.4z" p-id="2152"></path></svg>