<?xml version="1.0" standalone="no"?><!DOCTYPE svg PUBLIC "-//W3C//DTD SVG 1.1//EN" "http://www.w3.org/Graphics/SVG/1.1/DTD/svg11.dtd"><svg t="1763543551102" class="icon" viewBox="0 0 1024 1024" version="1.1" xmlns="http://www.w3.org/2000/svg" p-id="9040" xmlns:xlink="http://www.w3.org/1999/xlink" width="200" height="200"><path d="M602.33728 295.05536H414.72a12.5952 12.5952 0 0 0-13.35296 13.12768v39.30112H614.1952v-39.30112a12.53376 12.53376 0 0 0-11.85792-13.12768z" p-id="9041"></path><path d="M512 0a512 512 0 1 0 0 1024 512 512 0 0 0 0-1024zM215.42912 399.74912a52.85888 52.85888 0 0 1 53.12512-52.28544h79.79008v-52.30592a52.8384 52.8384 0 0 1 53.1456-52.26496h212.84864a52.87936 52.87936 0 0 1 53.12512 52.28544v52.28544h79.79008a52.81792 52.81792 0 0 1 53.16608 52.28544v78.41792H215.42912v-78.4384z m332.32896 143.79008a39.89504 39.89504 0 0 1-79.72864 0c-0.4096-4.5056 0.47104-9.07264 2.53952-13.1072h74.6496c2.1504 4.01408 3.05152 8.58112 2.62144 13.1072h-0.08192z m252.88704 196.03456a52.9408 52.9408 0 0 1-53.1456 52.30592H268.77952a52.9408 52.9408 0 0 1-53.12512-52.28544V530.3296h201.80992c-2.12992 4.03456-3.03104 8.6016-2.56 13.1072a93.12256 93.12256 0 0 0 186.20416 0 23.4496 23.4496 0 0 0-2.56-13.08672h202.0352l0.06144 209.2032z" p-id="9042"></path></svg>