<?xml version="1.0" standalone="no"?><!DOCTYPE svg PUBLIC "-//W3C//DTD SVG 1.1//EN" "http://www.w3.org/Graphics/SVG/1.1/DTD/svg11.dtd"><svg t="1763605459621" class="icon" viewBox="0 0 1190 1024" version="1.1" xmlns="http://www.w3.org/2000/svg" p-id="14024" xmlns:xlink="http://www.w3.org/1999/xlink" width="232.421875" height="200"><path d="M862.065116 0C1039.812465 0 1190.697674 150.742326 1190.697674 333.776372c0 10.763907-5.381953 59.225302-10.787721 69.989209-48.485209 274.574884-366.35386 495.282605-501.045581 581.417675-26.933581 16.14586-53.890977 26.909767-86.206512 26.909767-32.339349 0-59.27293-10.763907-86.206511-26.909767C355.589953 893.666233 5.405767 640.642977 0 339.158326v-16.145861C5.381953 145.360372 150.861395 0 328.632558 0c86.206512 0 167.03107 37.673674 231.709768 96.922791 16.14586 21.504 48.485209 21.504 70.013023 0C695.05786 32.267907 775.858605 0 862.065116 0z" p-id="14025"></path></svg>