<?xml version="1.0" standalone="no"?><!DOCTYPE svg PUBLIC "-//W3C//DTD SVG 1.1//EN" "http://www.w3.org/Graphics/SVG/1.1/DTD/svg11.dtd"><svg t="1762935411480" class="icon" viewBox="0 0 1024 1024" version="1.1" xmlns="http://www.w3.org/2000/svg" p-id="11260" xmlns:xlink="http://www.w3.org/1999/xlink" width="200" height="200"><path d="M977.755378 895.713383l-57.712594 58.429393A237.07629 237.07629 0 0 1 752.455078 1024c-26.767339 0-53.166037-4.526076-78.438337-13.455349C361.328351 899.891299 113.622949 645.714223 11.427831 330.486315a235.253572 235.253572 0 0 1 81.039295-259.276593l50.4422-38.481889A158.474113 158.474113 0 0 1 239.861568 0.000819a159.477632 159.477632 0 0 1 142.335886 86.937531l85.319612 165.764987a111.697831 111.697831 0 0 1-17.100786 126.730139l-17.776626 19.312624a62.46395 62.46395 0 0 0-9.523192 70.758344 302.243598 302.243598 0 0 0 130.928535 130.805655c22.753262 11.775991 52.039638 7.782394 70.819783-9.502712l19.374065-17.694706c33.648613-30.986215 86.159291-38.09277 126.812058-17.203187l165.887867 85.217212A159.477632 159.477632 0 0 1 1023.999181 783.442112c0 42.229726-16.383987 82.124734-46.243803 112.271271z m-28.262378-127.672218c0-52.633558-223.579981-146.288523-223.579981-146.288523-31.375335-11.263991-74.50618 36.577251-74.50618 36.577251-77.721538 56.504275-132.464534 13.639669-149.053321 0-48.496601-39.833568-114.462628-125.931419-149.032841-182.865774-25.866219-42.680286-14.786548-93.245365 0-109.711272 0 0 50.07356-42.434526 37.273571-73.154502-39.116769-95.190964-100.08568-236.175171-149.053321-219.422544-42.475486 13.762549-220.364624 71.638983-139.919248 283.238173 142.725006 375.0909 439.705248 526.089819 620.502543 594.452005 126.054299 9.093113 237.36301-147.107722 227.348298-182.824814z" p-id="11261"></path></svg>