<?xml version="1.0" standalone="no"?><!DOCTYPE svg PUBLIC "-//W3C//DTD SVG 1.1//EN" "http://www.w3.org/Graphics/SVG/1.1/DTD/svg11.dtd"><svg t="1762305061081" class="icon" viewBox="0 0 1024 1024" version="1.1" xmlns="http://www.w3.org/2000/svg" p-id="1903" xmlns:xlink="http://www.w3.org/1999/xlink" width="200" height="200"><path d="M381.09184 529.408l-2.21184 49.152 49.9712-2.17088 262.3488-258.048-47.75936-46.98112-262.3488 258.048z" p-id="1904"></path><path d="M950.86592 0H73.1136A73.35936 73.35936 0 0 0 0 73.13408V950.8864A73.35936 73.35936 0 0 0 73.13408 1024H950.8864A73.35936 73.35936 0 0 0 1024 950.86592V73.1136A73.35936 73.35936 0 0 0 950.86592 0zM621.71136 841.13408H292.57728c-20.48 0-36.57728-16.0768-36.57728-36.5568 0-20.48 16.09728-36.57728 36.57728-36.57728h329.13408c20.48 0 36.57728 16.09728 36.57728 36.57728s-16.09728 36.5568-36.57728 36.5568z m147.02592-496.64l-296.96 296.96a38.74816 38.74816 0 0 1-24.14592 10.97728l-103.85408 4.38272h-2.92864a36.27008 36.27008 0 0 1-35.10272-38.03136l4.38272-103.85408c0-9.50272 4.38272-17.55136 10.97728-24.14592l296.96-296.96a36.20864 36.20864 0 0 1 51.9168 0l99.47136 99.47136a36.20864 36.20864 0 0 1 0 51.93728l-0.7168-0.73728z" p-id="1905"></path></svg>
