<?xml version="1.0" standalone="no"?><!DOCTYPE svg PUBLIC "-//W3C//DTD SVG 1.1//EN" "http://www.w3.org/Graphics/SVG/1.1/DTD/svg11.dtd"><svg t="1762396783482" class="icon" viewBox="0 0 1024 1024" version="1.1" xmlns="http://www.w3.org/2000/svg" p-id="2738" xmlns:xlink="http://www.w3.org/1999/xlink" width="200" height="200"><path d="M938.65984 411.4432v-0.28672c0-1.024-0.04096-2.048-0.1024-3.072 0-0.34816-0.06144-0.69632-0.08192-1.06496a60.80512 60.80512 0 0 0-0.2048-2.27328l-0.1024-0.86016a59.76064 59.76064 0 0 0-0.38912-2.56l-0.06144-0.34816c-2.4576-13.57824-9.66656-26.624-21.7088-37.00736a82.08384 82.08384 0 0 0-42.84416-18.75968l-0.4096-0.06144a88.8832 88.8832 0 0 0-2.92864-0.32768l-1.00352-0.1024-2.64192-0.18432-1.2288-0.06144a97.4848 97.4848 0 0 0-3.56352-0.08192h-155.4432V109.69088c0-36.864-34.9184-67.05152-77.57824-67.05152H395.63264c-42.65984 0-77.57824 30.16704-77.57824 67.05152v234.65984H162.6112c-1.18784 0-2.37568 0.04096-3.54304 0.1024l-1.26976 0.06144a86.75328 86.75328 0 0 0-2.62144 0.18432l-1.00352 0.1024a89.088 89.088 0 0 0-2.94912 0.32768l-0.4096 0.06144a82.08384 82.08384 0 0 0-42.8032 18.75968c-12.06272 10.40384-19.27168 23.4496-21.7088 37.00736l-0.08192 0.34816a58.7776 58.7776 0 0 0-0.36864 2.56l-0.12288 0.86016c-0.1024 0.75776-0.14336 1.51552-0.2048 2.2528l-0.1024 1.10592c-0.04096 1.024-0.08192 2.048-0.08192 3.072v0.24576c0 1.14688 0.02048 2.2528 0.1024 3.3792l0.04096 0.512c0.06144 0.96256 0.14336 1.9456 0.24576 2.90816l0.04096 0.2048c1.76128 14.82752 9.17504 29.22496 22.2208 40.50944l349.04064 301.6704c15.11424 13.06624 35.04128 19.57888 54.96832 19.57888 19.92704 0 39.85408-6.51264 54.96832-19.57888l349.04064-301.6704c13.06624-11.28448 20.45952-25.68192 22.2208-40.48896l0.04096-0.22528a63.0784 63.0784 0 0 0 0.26624-2.90816l0.04096-0.512c0.06144-1.1264 0.08192-2.2528 0.08192-3.35872z m-77.57824 435.79392H162.9184c-42.68032 0-77.57824 30.16704-77.57824 67.05152 0 36.864 34.89792 67.05152 77.57824 67.05152h698.1632c42.68032 0 77.57824-30.18752 77.57824-67.05152s-34.89792-67.05152-77.57824-67.05152z" p-id="2739"></path></svg>