<?xml version="1.0" standalone="no"?><!DOCTYPE svg PUBLIC "-//W3C//DTD SVG 1.1//EN" "http://www.w3.org/Graphics/SVG/1.1/DTD/svg11.dtd"><svg t="1761900811433" class="icon" viewBox="0 0 1024 1024" version="1.1" xmlns="http://www.w3.org/2000/svg" p-id="2121" xmlns:xlink="http://www.w3.org/1999/xlink" width="200" height="200"><path d="M1018.283432 1004.520908a42.536849 42.536849 0 0 1-36.208545 19.45595H41.840531a42.577809 42.577809 0 0 1-36.229026-19.45595 36.741024 36.741024 0 0 1 0-39.055258 42.43445 42.43445 0 0 1 36.249506-19.783629h940.131956a42.49589 42.49589 0 0 1 36.229026 19.45595 36.597665 36.597665 0 0 1 0.061439 39.382937z m-479.292193-304.536808a289.422608 289.422608 0 0 1-157.85943 73.11341l-101.969655 8.519658c-49.397632 4.03455-76.554041 6.307824-81.674027 6.307823a39.935896 39.935896 0 0 1-28.016568-11.50973c-13.352925-13.250526-13.352925-13.250526-5.365746-109.383395l8.519658-101.744376a289.135888 289.135888 0 0 1 73.23629-157.75703L620.911026 33.136554a120.872646 120.872646 0 0 1 166.297167 0l126.83231 126.668471a117.227215 117.227215 0 0 1 0 165.621329L538.991239 700.00458z m319.569089-485.047059L731.625618 88.268571a39.485337 39.485337 0 0 0-55.254897 0L301.505776 462.580557a208.547298 208.547298 0 0 0-50.503549 108.932837l-8.601577 101.662456-2.703353 32.972714 32.993194-2.682873 101.990135-8.519658a209.386976 209.386976 0 0 0 108.973796-50.483069l374.987826-374.311986a39.423897 39.423897 0 0 0-0.16384-55.213937h0.08192z" p-id="2122"></path></svg>