<?xml version="1.0" standalone="no"?><!DOCTYPE svg PUBLIC "-//W3C//DTD SVG 1.1//EN" "http://www.w3.org/Graphics/SVG/1.1/DTD/svg11.dtd"><svg t="1763605463888" class="icon" viewBox="0 0 1024 1024" version="1.1" xmlns="http://www.w3.org/2000/svg" p-id="14182" xmlns:xlink="http://www.w3.org/1999/xlink" width="200" height="200"><path d="M991.421591 39.584292C968.074792 14.476244 931.436703 5.035126 896.457464 1.655984c-36.720008-3.522499-80.79221-1.208299-128.141156 5.017514-95.025566 12.431146-209.813991 41.28697-320.178813 76.798679C337.772674 119.004366 230.193084 161.78635 149.646629 202.704686c-40.09915 20.37725-74.955511 41.061694-100.186436 60.824554-12.164911 9.215841-23.142002 19.865258-32.665039 31.784413-8.253298 10.792774-16.936669 26.213949-16.793311 44.645633 0.307195 48.577724 33.340867 82.881134 68.565861 105.879778 35.962261 23.551595 82.799216 41.225531 129.328975 55.151692 46.980312 14.028559 96.5001 24.882772 138.99537 33.72998l15.216378 3.133386c25.701958 5.263269 38.501738 7.946103 50.646169 4.362165 11.980594-3.686337 21.360273-12.963617 39.935313-31.477219l183.886757-183.866277a49.970341 49.970341 0 0 1 70.572866 70.572866l-171.435131 171.51705c-18.964154 18.964154-28.46671 28.405271-31.98921 40.69306-3.604418 12.287789-0.757747 25.312845 5.078953 51.403916 22.404735 101.14898 41.901359 184.685463 61.295586 240.963535 11.263806 32.828875 24.063586 61.295586 40.242507 82.205306 16.793311 21.872264 39.730517 38.440299 69.917518 39.710037 18.718398 0.901105 34.467247-7.720827 45.096184-15.66693 11.325245-8.396656 21.954182-19.619503 31.784413-31.927771 19.76286-24.718935 40.529223-58.878987 61.213668-98.445667 41.573685-79.420074 85.563968-185.893763 122.877886-295.459878 37.170561-109.545636 68.197227-223.719672 83.16785-318.663319 7.434112-47.369425 11.099969-91.339229 9.011045-128.141156-1.884128-34.979238-9.29776-71.617328-32.00969-96.049548z" p-id="14183"></path></svg>