<?xml version="1.0" standalone="no"?><!DOCTYPE svg PUBLIC "-//W3C//DTD SVG 1.1//EN" "http://www.w3.org/Graphics/SVG/1.1/DTD/svg11.dtd"><svg t="1761729738999" class="icon" viewBox="0 0 1024 1024" version="1.1" xmlns="http://www.w3.org/2000/svg" p-id="2050" xmlns:xlink="http://www.w3.org/1999/xlink" width="200" height="200"><path d="M1023.754035 339.865737l0.12288-16.506877v-0.6144c-0.12288-0.73728-4.075519-24.248315-6.164479-32.358393-2.23232-8.396798-17.899516-29.921274-17.899516-29.921274l-7.516158-7.987199-203.16156-214.814677-5.816319-6.021119C746.700651-2.457395 700.31346 0.491725 700.31346 0.491725L693.391221 0.000205H184.176603C82.657263-0.122675 0 82.473148 0 184.012968v655.830909C0 941.424657 82.657263 1024 184.176603 1024h655.646589C941.342532 1024 1023.999795 941.404177 1023.999795 839.843877V339.845257h-0.24576zM183.316443 98.099385h506.265499v96.624621a105.410539 105.410539 0 0 1-105.226219 105.267179H288.542662a105.410539 105.410539 0 0 1-105.226219-105.267179V98.099385z m657.244029 828.415834H484.802463V675.40999h-189.972442v251.08475H183.295963V635.412558a85.647343 85.647343 0 0 1 85.483503-85.544943h486.031263c47.103991 0 85.483503 38.399992 85.483503 85.544943V926.515219h0.24576z" p-id="2051"></path></svg>
