<svg width="12" height="12" viewBox="0 0 12 12" fill="none" xmlns="http://www.w3.org/2000/svg">
<g clip-path="url(#clip0_611_13803)">
<path d="M9.85714 0C10.1143 0 10.3714 0.171429 10.5429 0.342857L11.8286 2.31429C11.9143 2.48571 12 2.65714 12 2.82857V11.1429C12 11.6571 11.6571 12 11.1429 12H0.857143C0.342857 12 0 11.6571 0 11.1429V2.82857C0 2.65714 0.0857143 2.48571 0.171429 2.31429L1.45714 0.342857C1.62857 0.171429 1.88571 0 2.14286 0H9.85714ZM9.85714 0.857143H2.14286L0.857143 2.82857V11.1429H11.1429V2.82857L9.85714 0.857143Z" fill="white"/>
<path d="M11.1429 2.58008C11.6571 2.58008 12 2.92262 12 3.43644V11.1437C12 11.6575 11.6571 12.0001 11.1429 12.0001H0.857143C0.342857 12.0001 0 11.6575 0 11.1437V3.43644C0 2.92262 0.342857 2.58008 0.857143 2.58008H11.1429ZM6.25714 4.80662C6.08571 4.63535 5.82857 4.72099 5.65714 4.89226L3.51429 7.54699C3.42857 7.63262 3.42857 7.71826 3.42857 7.8039C3.42857 7.97517 3.6 8.14644 3.85714 8.14644H5.14286V9.43099C5.14286 9.60226 5.31429 9.77353 5.48571 9.85917H6.42857C6.68571 9.85917 6.85714 9.6879 6.85714 9.43099V8.14644H8.4C8.57143 8.06081 8.65714 7.8039 8.48571 7.63262L6.34286 4.89226C6.34286 4.80662 6.25714 4.80662 6.25714 4.80662Z" fill="white"/>
</g>
<defs>
<clipPath id="clip0_611_13803">
<rect width="12" height="12" fill="white"/>
</clipPath>
</defs>
</svg>
