<?xml version="1.0" standalone="no"?><!DOCTYPE svg PUBLIC "-//W3C//DTD SVG 1.1//EN" "http://www.w3.org/Graphics/SVG/1.1/DTD/svg11.dtd"><svg t="1762159014838" class="icon" viewBox="0 0 1024 1024" version="1.1" xmlns="http://www.w3.org/2000/svg" p-id="1764" xmlns:xlink="http://www.w3.org/1999/xlink" width="200" height="200"><path d="M512 0C229.25312 0 0 229.25312 0 512s229.25312 512 512 512 512-229.25312 512-512S794.74688 0 512 0z m-7.7824 225.93536c85.95456-0.32768 147.6608 56.46336 150.75328 142.86848 2.74432 76.57472-65.49504 143.54432-147.53792 143.31904-87.4496-0.34816-143.19616-65.61792-149.95456-143.5648 4.34176-70.0416 57.0368-142.27456 146.75968-142.62272zM733.81888 787.6608c-24.22784 7.08608-49.152 9.0112-74.15808 10.28096-6.51264 0-13.02528 0.12288-19.53792 0.12288-87.4496 0-174.98112-0.12288-262.41024-0.12288-32.23552-1.14688-64.67584-0.12288-95.4368-12.8-12.55424-5.26336-20.56192-13.25056-22.50752-26.84928v-16.46592c3.44064-66.74432 32.5632-118.9888 90.05056-153.47712 26.624-16.01536 56.23808-26.4192 87.77728-26.97216 49.60256-1.024 99.20512-2.17088 148.6848 0 101.02784 4.44416 176.45568 83.98848 178.176 185.1392 0.22528 23.7568-7.20896 34.16064-30.6176 41.14432z" p-id="1765"></path></svg>