<?xml version="1.0" standalone="no"?><!DOCTYPE svg PUBLIC "-//W3C//DTD SVG 1.1//EN" "http://www.w3.org/Graphics/SVG/1.1/DTD/svg11.dtd"><svg t="1761707846698" class="icon" viewBox="0 0 1024 1024" version="1.1" xmlns="http://www.w3.org/2000/svg" p-id="1805" xmlns:xlink="http://www.w3.org/1999/xlink" width="200" height="200"><path d="M512 0a512 512 0 1 1 0 1024 512 512 0 0 1 0-1024z m140.57472 234.51648a82.82112 82.82112 0 0 0-117.82144 0l-281.3952 283.79136a132.68992 132.68992 0 0 0-38.35904 93.40928v121.81504c0 38.83008 31.21152 70.30784 69.69344 70.30784H405.504c34.75456 0 68.096-13.9264 92.65152-38.74816l281.2928-283.8528a84.52096 84.52096 0 0 0-0.02048-118.82496l-126.83264-127.8976z" p-id="1806"></path><path d="M573.5424 374.272L653.9264 454.656c11.8784 11.85792 11.8784 23.71584 0 35.55328l-3.072 3.09248c-11.8784 11.8784-23.71584 11.8784-35.57376 0l-80.384-80.384c-11.8784-11.85792-11.8784-23.69536 0-35.55328l3.072-3.09248c11.8784-11.8784 23.71584-11.8784 35.57376 0z" p-id="1807"></path></svg>