<?xml version="1.0" standalone="no"?><!DOCTYPE svg PUBLIC "-//W3C//DTD SVG 1.1//EN" "http://www.w3.org/Graphics/SVG/1.1/DTD/svg11.dtd"><svg t="1760422130834" class="icon" viewBox="0 0 1024 1024" version="1.1" xmlns="http://www.w3.org/2000/svg" p-id="2079" xmlns:xlink="http://www.w3.org/1999/xlink" width="16" height="16"><path d="M512 0a512 512 0 1 1 0 1024 512 512 0 0 1 0-1024z m-159.04768 233.73824c-47.26784 0-85.6064 35.59424-85.6064 79.50336v397.5168c0 43.90912 38.33856 79.50336 85.6064 79.50336h313.9584c47.28832 0 85.6064-35.59424 85.6064-79.50336V432.49664h-128.4096c-47.28832 0-85.6064-35.61472-85.6064-79.52384v-119.23456h-185.5488z m256.88064 384.26624c10.17856 0 19.59936 5.03808 24.69888 13.25056a24.8832 24.8832 0 0 1 0 26.50112c-5.09952 8.192-14.52032 13.25056-24.71936 13.25056h-199.74144c-14.78656 0-26.95168-10.4448-28.40576-23.79776l-0.16384-2.70336c0-14.62272 12.77952-26.50112 28.52864-26.50112h199.80288z m-14.27456-265.0112c0 14.62272 12.77952 26.50112 28.54912 26.50112h123.37152a40.16128 40.16128 0 0 0-7.49568-9.37984l-134.3488-124.7232a42.82368 42.82368 0 0 0-10.07616-6.9632v114.54464z" p-id="2080"></path></svg>